<svg xmlns="http://www.w3.org/2000/svg" version="1.1" xmlns:xlink="http://www.w3.org/1999/xlink" xmlns:svgjs="http://svgjs.dev/svgjs" width="1000" height="1143" viewBox="0 0 1000 1143"><g transform="matrix(1,0,0,1,-0.6337728995557654,0.46275303643722054)"><svg viewBox="0 0 216 247" data-background-color="#ffffff" preserveAspectRatio="xMidYMid meet" height="1143" width="1000" xmlns="http://www.w3.org/2000/svg" xmlns:xlink="http://www.w3.org/1999/xlink"><g id="tight-bounds" transform="matrix(1,0,0,1,0.13689494630403942,-0.09999999999999432)"><svg viewBox="0 0 215.72621010739192 247.2" height="247.2" width="215.72621010739192"><g><svg viewBox="0 0 397.4975999999999 455.4912760534934" height="247.2" width="215.72621010739192"><g><rect width="397.4975999999999" height="9.864828622539706" x="0" y="241.18943531089192" fill="#528265" opacity="1" stroke-width="0" stroke="transparent" fill-opacity="1" class="rect-o-0" data-fill-palette-color="primary" rx="1%" id="o-0" data-palette-color="#528265"></rect></g><g><rect width="397.4975999999999" height="9.864828622539706" x="0" y="263.96634328230556" fill="#528265" opacity="1" stroke-width="0" stroke="transparent" fill-opacity="1" class="rect-o-1" data-fill-palette-color="primary" rx="1%" id="o-1" data-palette-color="#528265"></rect></g><g transform="matrix(1,0,0,1,0.9887999999999693,299.6553306025932)"><svg viewBox="0 0 395.52 155.83594545090014" height="155.83594545090014" width="395.52"><g id="textblocktransform"><svg viewBox="0 0 395.52 155.83594545090014" height="155.83594545090014" width="395.52" id="textblock"><g><svg viewBox="0 0 395.52 109.38917423943104" height="109.38917423943104" width="395.52"><g transform="matrix(1,0,0,1,0,0)"><svg width="395.52" viewBox="3 -35 126.53999328613281 35" height="109.38917423943104" data-palette-color="#528265"><path d="M17.95 0L6.6 0Q5.1 0 4.05-1.05 3-2.1 3-3.6L3-3.6 3-11.35 7.65-10.3 7.65-6.45Q7.65-5.7 8.18-5.18 8.7-4.65 9.4-4.65L9.4-4.65 15.1-4.65Q15.85-4.65 16.38-5.18 16.9-5.7 16.9-6.45L16.9-6.45 16.9-15.25Q16.9-16 16.38-16.53 15.85-17.05 15.1-17.05L15.1-17.05 6.6-17.05Q5.1-17.05 4.05-18.1 3-19.15 3-20.65L3-20.65 3-31.4Q3-32.9 4.05-33.95 5.1-35 6.6-35L6.6-35 17.95-35Q19.45-35 20.5-33.95 21.55-32.9 21.55-31.4L21.55-31.4 21.55-26 16.9-27.1 16.9-28.55Q16.9-29.3 16.38-29.83 15.85-30.35 15.1-30.35L15.1-30.35 9.4-30.35Q8.7-30.35 8.18-29.83 7.65-29.3 7.65-28.55L7.65-28.55 7.65-23.5Q7.65-22.75 8.18-22.23 8.7-21.7 9.4-21.7L9.4-21.7 17.95-21.7Q19.45-21.7 20.5-20.65 21.55-19.6 21.55-18.1L21.55-18.1 21.55-3.6Q21.55-2.1 20.5-1.05 19.45 0 17.95 0L17.95 0ZM32.8 0L28.15 0 28.15-35 32.8-35 39.75-13.65 46.7-35 51.35-35 51.35 0 46.7 0 46.7-20.8 42.05-6.55 37.45-6.55 32.8-20.8 32.8 0ZM62.1 0L57.45 0 57.45-35 72.45-35Q73.9-35 74.95-33.95 76-32.9 76-31.4L76-31.4 76-20.65Q76-19.15 74.95-18.1 73.9-17.05 72.45-17.05L72.45-17.05 71.4-17.05 76 0 71.4 0 66.75-17.05 62.1-17.05 62.1 0ZM62.1-30.35L62.1-21.7 69.6-21.7Q70.3-21.7 70.85-22.23 71.4-22.75 71.4-23.5L71.4-23.5 71.4-28.55Q71.4-29.3 70.85-29.83 70.3-30.35 69.6-30.35L69.6-30.35 62.1-30.35ZM97.04 0L85.69 0Q84.29 0 83.19-1.05 82.09-2.1 82.09-3.6L82.09-3.6 82.09-31.4Q82.09-32.85 83.19-33.93 84.29-35 85.69-35L85.69-35 97.04-35Q98.59-35 99.62-33.93 100.64-32.85 100.64-31.4L100.64-31.4 100.64-24.9 95.99-23.85 95.99-28.55Q95.99-29.25 95.52-29.8 95.04-30.35 94.24-30.35L94.24-30.35 88.54-30.35Q87.84-30.35 87.29-29.8 86.74-29.25 86.74-28.55L86.74-28.55 86.74-6.45Q86.74-5.65 87.29-5.15 87.84-4.65 88.54-4.65L88.54-4.65 94.24-4.65Q95.04-4.65 95.52-5.15 95.99-5.65 95.99-6.45L95.99-6.45 95.99-10.1 100.64-11.2 100.64-3.6Q100.64-2.1 99.62-1.05 98.59 0 97.04 0L97.04 0ZM110.99 0L106.34 0 106.34-35 110.99-35 117.94-13.65 124.89-35 129.54-35 129.54 0 124.89 0 124.89-20.8 120.24-6.55 115.64-6.55 110.99-20.8 110.99 0Z" opacity="1" transform="matrix(1,0,0,1,0,0)" fill="#528265" class="wordmark-text-0" data-fill-palette-color="primary" id="text-0"></path></svg></g></svg></g><g transform="matrix(1,0,0,1,0,135.21333293717896)"><svg viewBox="0 0 395.52 20.622612513721183" height="20.622612513721183" width="395.52"><g transform="matrix(1,0,0,1,0,0)"><svg width="395.52" viewBox="2.75 -35.5 910.9000244140625 47.5" height="20.622612513721183" data-palette-color="#528265"><path d="M22.15-33.75L22.15-33.75 21.35-30.4 18.45-31.25Q15.35-32 13.1-32L13.1-32Q7.2-32 7.2-26.75L7.2-26.75Q7.2-24.45 9-22.98 10.8-21.5 13.38-20.63 15.95-19.75 18.53-18.73 21.1-17.7 22.9-15.58 24.7-13.45 24.7-10.2L24.7-10.2Q24.7-5.25 21.65-2.48 18.6 0.3 13 0.3L13 0.3Q10.2 0.3 7.38-0.53 4.55-1.35 2.75-2.45L2.75-2.45 4-5.3Q8.55-3.2 12.63-3.2 16.7-3.2 18.82-4.85 20.95-6.5 20.95-9.65L20.95-9.65Q20.95-12.85 17.5-14.65L17.5-14.65Q15.95-15.45 14.08-16.15 12.2-16.85 10.33-17.68 8.45-18.5 6.93-19.55 5.4-20.6 4.42-22.4 3.45-24.2 3.45-26.6L3.45-26.6Q3.45-30.9 6.03-33.2 8.6-35.5 12.95-35.5 17.3-35.5 22.15-33.75ZM35.15 0L31.4 0 31.4-25 35.15-25 35.15 0ZM31.4-35L35.15-35 35.15-30.55 31.4-30.55 31.4-35ZM54.05-25.55L54.05-25.55Q58.84-25.55 60.9-22.15L60.9-22.15Q65.15-25.55 68.75-25.55 72.34-25.55 74.62-23.53 76.9-21.5 76.9-17.65L76.9-17.65 76.9 0 73.25 0 73.25-16.1Q73.25-19.15 71.87-20.73 70.5-22.3 68.19-22.3L68.19-22.3Q65.05-22.3 61.84-19.8L61.84-19.8Q62.09-18.7 62.09-17.65L62.09-17.65 62.09 0 58.45 0 58.45-16.1Q58.45-19.15 57.07-20.73 55.7-22.3 53.4-22.3L53.4-22.3Q51.9-22.3 50.65-21.9 49.4-21.5 48.8-21.1 48.2-20.7 47.25-19.9L47.25-19.9 47.25 0 43.49 0 43.49-25 45.9-25 46.55-22.45Q47.8-23.5 48.47-23.98 49.15-24.45 50.7-25 52.25-25.55 54.05-25.55ZM89.74-2.05L89.74 11.9 85.99 11.9 85.99-24.95 88.19-24.95 89.49-22.15Q91.59-23.75 93.42-24.63 95.24-25.5 97.44-25.5L97.44-25.5Q106.44-25.5 106.44-12.55L106.44-12.55Q106.44-5.2 103.24-2.3L103.24-2.3Q100.39 0.35 96.77 0.35 93.14 0.35 89.74-2.05L89.74-2.05ZM89.74-18.8L89.74-18.8 89.74-5.45Q90.74-4.25 92.44-3.55 94.14-2.85 95.69-2.85L95.69-2.85Q99.59-2.85 101.14-5.15 102.69-7.45 102.69-12.35 102.69-17.25 101.14-19.75 99.59-22.25 97.19-22.25L97.19-22.25Q95.59-22.25 94.02-21.6 92.44-20.95 91.67-20.38 90.89-19.8 89.74-18.8ZM117.04 0L113.29 0 113.29-35 117.04-35 117.04 0ZM129.19 0L125.44 0 125.44-25 129.19-25 129.19 0ZM125.44-35L129.19-35 129.19-30.55 125.44-30.55 125.44-35ZM134.74-25L138.64-25 138.64-29.8Q138.64-32.85 140.51-34.18 142.39-35.5 144.56-35.5 146.74-35.5 148.79-34.85L148.79-34.85 148.24-32.15Q146.59-32.45 145.79-32.45L145.79-32.45Q142.34-32.45 142.34-29.1L142.34-29.1 142.34-25 147.44-25 147.44-22 142.34-22 142.34 0 138.59 0 138.59-22 134.74-22 134.74-25ZM155.13 0L151.38 0 151.38-25 155.13-25 155.13 0ZM151.38-35L155.13-35 155.13-30.55 151.38-30.55 151.38-35ZM180.83-11.7L180.83-11.7 164.88-11.7Q164.88-6.9 167.16-4.9 169.43-2.9 172.88-2.9L172.88-2.9Q174.63-2.9 175.33-3.08 176.03-3.25 176.66-3.43 177.28-3.6 177.53-3.7L177.53-3.7Q178.78-4.05 179.68-4.35L179.68-4.35 180.28-1.45Q175.28 0.3 172.48 0.3L172.48 0.3Q167.33 0.3 164.23-2.83 161.13-5.95 161.13-12.23 161.13-18.5 164.06-22 166.98-25.5 171.46-25.5 175.93-25.5 178.43-22.6 180.93-19.7 180.93-14.75L180.93-14.75Q180.93-13.4 180.83-11.7ZM165.13-14.55L165.13-14.55 177.33-14.55Q177.33-18.25 176.03-20.25 174.73-22.25 171.51-22.25 168.28-22.25 166.78-20.1 165.28-17.95 165.13-14.55ZM202.18-23L202.18-35 205.93-35 205.93 0 203.73 0 202.48-2.85Q197.88 0.4 194.48 0.4L194.48 0.4Q185.48 0.4 185.48-12.55L185.48-12.55Q185.48-19.9 188.68-22.8L188.68-22.8Q191.53-25.45 195.13-25.45 198.73-25.45 202.18-23L202.18-23ZM202.18-6.2L202.18-6.2 202.18-19.2Q201.13-20.45 199.4-21.35 197.68-22.25 196.23-22.25L196.23-22.25Q192.33-22.25 190.78-19.95 189.23-17.65 189.23-12.75 189.23-7.85 190.78-5.35 192.33-2.85 194.73-2.85L194.73-2.85Q198.33-2.85 202.18-6.2ZM257.02-35L257.02 0 253.27 0 253.27-28.7 242.02-9.2 240.72-9.25 229.47-28.65 229.47 0 225.77 0 225.77-35 229.97-35 241.42-15.75 253.27-35 257.02-35ZM279.82-12.33Q279.82-17.15 277.92-19.7 276.02-22.25 272.37-22.25 268.72-22.25 267.2-19.83 265.67-17.4 265.67-12.4L265.67-12.4Q265.67-2.95 272.62-2.95L272.62-2.95Q276.27-2.95 278.05-5.23 279.82-7.5 279.82-12.33ZM280.72-3.1Q277.87 0.3 272.67 0.3 267.47 0.3 264.7-3.08 261.92-6.45 261.92-12.53 261.92-18.6 264.6-22.05 267.27-25.5 272.45-25.5 277.62-25.5 280.6-22 283.57-18.5 283.57-12.5 283.57-6.5 280.72-3.1ZM290.27 0L290.27-35 294.02-35 294.02-22.5Q298.32-25.55 301.72-25.55L301.72-25.55Q310.72-25.55 310.72-12.6L310.72-12.6Q310.72-5.25 307.52-2.3L307.52-2.3Q304.67 0.3 300.82 0.3L300.82 0.3Q298.87 0.3 296.87-0.58 294.87-1.45 293.57-2.45L293.57-2.45 292.47 0 290.27 0ZM294.02-18.95L294.02-18.95 294.02-5.35Q295.02-4.2 296.69-3.55 298.37-2.9 299.97-2.9L299.97-2.9Q303.87-2.9 305.42-5.2 306.97-7.5 306.97-12.4 306.97-17.3 305.42-19.8 303.87-22.3 301.47-22.3L301.47-22.3Q297.87-22.3 294.02-18.95ZM320.62 0L316.87 0 316.87-25 320.62-25 320.62 0ZM316.87-35L320.62-35 320.62-30.55 316.87-30.55 316.87-35ZM332.71 0L328.96 0 328.96-35 332.71-35 332.71 0ZM359.16-11.7L359.16-11.7 343.21-11.7Q343.21-6.9 345.49-4.9 347.76-2.9 351.21-2.9L351.21-2.9Q352.96-2.9 353.66-3.08 354.36-3.25 354.99-3.43 355.61-3.6 355.86-3.7L355.86-3.7Q357.11-4.05 358.01-4.35L358.01-4.35 358.61-1.45Q353.61 0.3 350.81 0.3L350.81 0.3Q345.66 0.3 342.56-2.83 339.46-5.95 339.46-12.23 339.46-18.5 342.39-22 345.31-25.5 349.79-25.5 354.26-25.5 356.76-22.6 359.26-19.7 359.26-14.75L359.26-14.75Q359.26-13.4 359.16-11.7ZM343.46-14.55L343.46-14.55 355.66-14.55Q355.66-18.25 354.36-20.25 353.06-22.25 349.84-22.25 346.61-22.25 345.11-20.1 343.61-17.95 343.46-14.55ZM373.66-16.45L373.66-12.7 364.11-12.7 364.11-16.45 373.66-16.45ZM380.61 0L380.61-35 384.36-35 384.36-22.5Q388.66-25.55 392.06-25.55L392.06-25.55Q401.06-25.55 401.06-12.6L401.06-12.6Q401.06-5.25 397.86-2.3L397.86-2.3Q395.01 0.3 391.16 0.3L391.16 0.3Q389.21 0.3 387.21-0.58 385.21-1.45 383.91-2.45L383.91-2.45 382.81 0 380.61 0ZM384.36-18.95L384.36-18.95 384.36-5.35Q385.36-4.2 387.03-3.55 388.71-2.9 390.31-2.9L390.31-2.9Q394.21-2.9 395.76-5.2 397.31-7.5 397.31-12.4 397.31-17.3 395.76-19.8 394.21-22.3 391.81-22.3L391.81-22.3Q388.21-22.3 384.36-18.95ZM418.7-14.95L418.7-14.95 420.75-14.95Q420.75-19.5 419.6-20.88 418.45-22.25 414.5-22.25 410.55-22.25 407.8-21.2L407.8-21.2 407.1-24.1Q411.3-25.5 415.8-25.5L415.8-25.5Q424.6-25.5 424.6-16.7L424.6-16.7 424.6 0 422.4 0 421.1-2.95Q418.8-1.05 417.13-0.38 415.45 0.3 413.25 0.3L413.25 0.3Q409.75 0.3 407.8-1.78 405.85-3.85 405.85-7.25L405.85-7.25Q405.85-14.95 418.7-14.95ZM420.8-6.55L420.8-11.8 418.55-11.8Q413.45-11.8 411.53-10.8 409.6-9.8 409.6-7.68 409.6-5.55 410.7-4.2 411.8-2.85 413.58-2.85 415.35-2.85 416.98-3.68 418.6-4.5 420.8-6.55L420.8-6.55ZM431.85-1.65L432.75-4.45Q436-2.95 438.95-2.95 441.9-2.95 443.43-4.13 444.95-5.3 444.95-7.25 444.95-9.2 443.65-10.28 442.35-11.35 440.48-11.95 438.6-12.55 436.73-13.25 434.85-13.95 433.55-15.35 432.25-16.75 432.25-18.9L432.25-18.9Q432.25-22.05 434.3-23.78 436.35-25.5 439.85-25.5 443.35-25.5 446.35-24.45L446.35-24.45 446.7-24.3 446.05-21.1Q443.05-22.25 440.48-22.25 437.9-22.25 436.95-21.45 436-20.65 436-18.75L436-18.75Q436-17.55 437.3-16.7 438.6-15.85 440.48-15.23 442.35-14.6 444.23-13.78 446.1-12.95 447.4-11.3 448.7-9.65 448.7-7.25L448.7-7.25Q448.7-3.75 446.25-1.73 443.8 0.3 439.5 0.3 435.2 0.3 431.85-1.65L431.85-1.65ZM472.85-11.7L472.85-11.7 456.9-11.7Q456.9-6.9 459.17-4.9 461.45-2.9 464.9-2.9L464.9-2.9Q466.65-2.9 467.35-3.08 468.05-3.25 468.67-3.43 469.3-3.6 469.55-3.7L469.55-3.7Q470.8-4.05 471.7-4.35L471.7-4.35 472.3-1.45Q467.3 0.3 464.5 0.3L464.5 0.3Q459.35 0.3 456.25-2.83 453.15-5.95 453.15-12.23 453.15-18.5 456.07-22 459-25.5 463.47-25.5 467.95-25.5 470.45-22.6 472.95-19.7 472.95-14.75L472.95-14.75Q472.95-13.4 472.85-11.7ZM457.15-14.55L457.15-14.55 469.35-14.55Q469.35-18.25 468.05-20.25 466.75-22.25 463.52-22.25 460.3-22.25 458.8-20.1 457.3-17.95 457.15-14.55ZM494.2-23L494.2-35 497.95-35 497.95 0 495.75 0 494.5-2.85Q489.9 0.4 486.5 0.4L486.5 0.4Q477.5 0.4 477.5-12.55L477.5-12.55Q477.5-19.9 480.7-22.8L480.7-22.8Q483.55-25.45 487.15-25.45 490.75-25.45 494.2-23L494.2-23ZM494.2-6.2L494.2-6.2 494.2-19.2Q493.15-20.45 491.42-21.35 489.7-22.25 488.25-22.25L488.25-22.25Q484.35-22.25 482.8-19.95 481.25-17.65 481.25-12.75 481.25-7.85 482.8-5.35 484.35-2.85 486.75-2.85L486.75-2.85Q490.35-2.85 494.2-6.2ZM526.39-16.45L526.39-16.45 523.29-16.45 523.29-0.05 519.54-0.05 519.54-35.05 529.64-35.05Q534.74-35.05 537.32-32.73 539.89-30.4 539.89-26.1L539.89-26.1Q539.89-23.1 537.82-20.6 535.74-18.1 532.69-17.7L532.69-17.7Q535.14-17.15 536.16-16.13 537.19-15.1 538.59-11.75L538.59-11.75 543.54-0.05 539.59-0.05 534.74-11.25Q533.39-14.4 531.72-15.43 530.04-16.45 526.39-16.45ZM529.44-31.85L529.44-31.85 523.29-31.85 523.29-19.65 528.94-19.65Q532.04-19.65 533.87-21.48 535.69-23.3 535.69-26.1 535.69-28.9 534.04-30.38 532.39-31.85 529.44-31.85ZM552.74 0L548.99 0 548.99-25 552.74-25 552.74 0ZM548.99-35L552.74-35 552.74-30.55 548.99-30.55 548.99-35ZM575.78-3.9L575.78-3.9 576.53-0.95Q572.53 0.25 569.48 0.25L569.48 0.25Q564.13 0.25 561.43-3.25 558.73-6.75 558.73-12.9 558.73-19.05 561.53-22.28 564.33-25.5 569.78-25.5L569.78-25.5Q572.13-25.5 576.38-24.3L576.38-24.3 574.88-21.4Q572.13-22.2 569.93-22.2L569.93-22.2Q566.13-22.2 564.46-19.95 562.78-17.7 562.78-12.85L562.78-12.85Q562.78-3 569.83-3L569.83-3Q572.63-3 575.78-3.9ZM600.08-11.7L600.08-11.7 584.13-11.7Q584.13-6.9 586.41-4.9 588.68-2.9 592.13-2.9L592.13-2.9Q593.88-2.9 594.58-3.08 595.28-3.25 595.91-3.43 596.53-3.6 596.78-3.7L596.78-3.7Q598.03-4.05 598.93-4.35L598.93-4.35 599.53-1.45Q594.53 0.3 591.73 0.3L591.73 0.3Q586.58 0.3 583.48-2.83 580.38-5.95 580.38-12.23 580.38-18.5 583.31-22 586.23-25.5 590.71-25.5 595.18-25.5 597.68-22.6 600.18-19.7 600.18-14.75L600.18-14.75Q600.18-13.4 600.08-11.7ZM584.38-14.55L584.38-14.55 596.58-14.55Q596.58-18.25 595.28-20.25 593.98-22.25 590.76-22.25 587.53-22.25 586.03-20.1 584.53-17.95 584.38-14.55ZM632.43 0.3L632.43 0.3Q625.28 0.3 621.45-4.53 617.63-9.35 617.63-17.6 617.63-25.85 621.68-30.65 625.73-35.45 632.98-35.45L632.98-35.45Q636.98-35.45 640.83-34L640.83-34 639.93-30.9Q636.88-32.2 632.73-32.2L632.73-32.2Q627.48-32.2 624.43-28.38 621.38-24.55 621.38-17.88 621.38-11.2 624.25-7.08 627.13-2.95 632.28-2.95L632.28-2.95Q635.68-2.95 640.83-4.9L640.83-4.9 641.83-2.3Q637.53 0.3 632.43 0.3ZM652.62-19.1L652.62-19.1 652.62 0 648.87 0 648.87-25 651.27-25 651.87-22.05Q654.27-23.95 655.87-24.73 657.47-25.5 659.52-25.5L659.52-25.5Q660.52-25.5 661.02-25.4L661.02-25.4 661.72-25.2 661.12-21.75Q660.22-22.05 658.67-22.05L658.67-22.05Q655.67-22.05 652.62-19.1ZM682.87-12.33Q682.87-17.15 680.97-19.7 679.07-22.25 675.42-22.25 671.77-22.25 670.25-19.83 668.72-17.4 668.72-12.4L668.72-12.4Q668.72-2.95 675.67-2.95L675.67-2.95Q679.32-2.95 681.1-5.23 682.87-7.5 682.87-12.33ZM683.77-3.1Q680.92 0.3 675.72 0.3 670.52 0.3 667.75-3.08 664.97-6.45 664.97-12.53 664.97-18.6 667.65-22.05 670.32-25.5 675.5-25.5 680.67-25.5 683.65-22 686.62-18.5 686.62-12.5 686.62-6.5 683.77-3.1ZM697.07-2.05L697.07 11.9 693.32 11.9 693.32-24.95 695.52-24.95 696.82-22.15Q698.92-23.75 700.74-24.63 702.57-25.5 704.77-25.5L704.77-25.5Q713.77-25.5 713.77-12.55L713.77-12.55Q713.77-5.2 710.57-2.3L710.57-2.3Q707.72 0.35 704.09 0.35 700.47 0.35 697.07-2.05L697.07-2.05ZM697.07-18.8L697.07-18.8 697.07-5.45Q698.07-4.25 699.77-3.55 701.47-2.85 703.02-2.85L703.02-2.85Q706.92-2.85 708.47-5.15 710.02-7.45 710.02-12.35 710.02-17.25 708.47-19.75 706.92-22.25 704.52-22.25L704.52-22.25Q702.92-22.25 701.34-21.6 699.77-20.95 698.99-20.38 698.22-19.8 697.07-18.8ZM762.61-35L762.61 0 758.86 0 758.86-28.7 747.61-9.2 746.31-9.25 735.06-28.65 735.06 0 731.36 0 731.36-35 735.56-35 747.01-15.75 758.86-35 762.61-35ZM780.76-14.95L780.76-14.95 782.81-14.95Q782.81-19.5 781.66-20.88 780.51-22.25 776.56-22.25 772.61-22.25 769.86-21.2L769.86-21.2 769.16-24.1Q773.36-25.5 777.86-25.5L777.86-25.5Q786.66-25.5 786.66-16.7L786.66-16.7 786.66 0 784.46 0 783.16-2.95Q780.86-1.05 779.19-0.38 777.51 0.3 775.31 0.3L775.31 0.3Q771.81 0.3 769.86-1.78 767.91-3.85 767.91-7.25L767.91-7.25Q767.91-14.95 780.76-14.95ZM782.86-6.55L782.86-11.8 780.61-11.8Q775.51-11.8 773.59-10.8 771.66-9.8 771.66-7.68 771.66-5.55 772.76-4.2 773.86-2.85 775.64-2.85 777.41-2.85 779.04-3.68 780.66-4.5 782.86-6.55L782.86-6.55ZM799.51-19.85L799.51-19.85 799.51 0 795.76 0 795.76-25 798.16-25 798.76-22.55Q799.91-23.45 800.63-23.95 801.36-24.45 802.96-24.98 804.56-25.5 806.36-25.5L806.36-25.5Q809.81-25.5 812.08-23.38 814.36-21.25 814.36-17.35L814.36-17.35 814.36 0 810.61 0 810.61-16.25Q810.61-22.3 805.56-22.3L805.56-22.3Q801.96-22.3 799.51-19.85ZM834.26-14.95L834.26-14.95 836.31-14.95Q836.31-19.5 835.16-20.88 834.01-22.25 830.06-22.25 826.11-22.25 823.36-21.2L823.36-21.2 822.66-24.1Q826.86-25.5 831.36-25.5L831.36-25.5Q840.16-25.5 840.16-16.7L840.16-16.7 840.16 0 837.96 0 836.66-2.95Q834.36-1.05 832.68-0.38 831.01 0.3 828.81 0.3L828.81 0.3Q825.31 0.3 823.36-1.78 821.41-3.85 821.41-7.25L821.41-7.25Q821.41-14.95 834.26-14.95ZM836.36-6.55L836.36-11.8 834.11-11.8Q829.01-11.8 827.08-10.8 825.16-9.8 825.16-7.68 825.16-5.55 826.26-4.2 827.36-2.85 829.13-2.85 830.91-2.85 832.53-3.68 834.16-4.5 836.36-6.55L836.36-6.55ZM863.45 1.7L863.45-2.65Q859.25 0.35 855.8 0.35L855.8 0.35Q846.8 0.35 846.8-12.6L846.8-12.6Q846.8-19.95 850-22.9L850-22.9Q852.85-25.5 856.93-25.5 861-25.5 863.75-21.8L863.75-21.8 865.05-25.05 867.25-25.05 867.25 1.25Q867.25 6.7 864.55 9.35 861.85 12 857.25 12L857.25 12Q854.9 12 853.05 11.4 851.2 10.8 849.2 10.05L849.2 10.05 849.9 7.4Q854.1 8.75 856.93 8.75 859.75 8.75 861.6 7 863.45 5.25 863.45 1.7L863.45 1.7ZM863.45-6.25L863.45-6.25 863.45-15.6Q863.45-18.55 861.5-20.4 859.55-22.25 857.5-22.25L857.5-22.25Q853.6-22.25 852.05-19.98 850.5-17.7 850.5-12.7L850.5-12.7Q850.5-2.9 856-2.9L856-2.9Q859.6-2.9 863.45-6.25ZM893.7-11.7L893.7-11.7 877.75-11.7Q877.75-6.9 880.03-4.9 882.3-2.9 885.75-2.9L885.75-2.9Q887.5-2.9 888.2-3.08 888.9-3.25 889.53-3.43 890.15-3.6 890.4-3.7L890.4-3.7Q891.65-4.05 892.55-4.35L892.55-4.35 893.15-1.45Q888.15 0.3 885.35 0.3L885.35 0.3Q880.2 0.3 877.1-2.83 874-5.95 874-12.23 874-18.5 876.93-22 879.85-25.5 884.33-25.5 888.8-25.5 891.3-22.6 893.8-19.7 893.8-14.75L893.8-14.75Q893.8-13.4 893.7-11.7ZM878-14.55L878-14.55 890.2-14.55Q890.2-18.25 888.9-20.25 887.6-22.25 884.38-22.25 881.15-22.25 879.65-20.1 878.15-17.95 878-14.55ZM904.55-19.1L904.55-19.1 904.55 0 900.8 0 900.8-25 903.2-25 903.8-22.05Q906.2-23.95 907.8-24.73 909.4-25.5 911.45-25.5L911.45-25.5Q912.45-25.5 912.95-25.4L912.95-25.4 913.65-25.2 913.05-21.75Q912.15-22.05 910.6-22.05L910.6-22.05Q907.6-22.05 904.55-19.1Z" opacity="1" transform="matrix(1,0,0,1,0,0)" fill="#528265" class="slogan-text-1" data-fill-palette-color="secondary" id="text-1"></path></svg></g></svg></g></svg></g></svg></g><g transform="matrix(1,0,0,1,96.38404101641908,0)"><svg viewBox="0 0 204.72951796716177 215.365276613144" height="215.365276613144" width="204.72951796716177"><g><svg xmlns="http://www.w3.org/2000/svg" xmlns:xlink="http://www.w3.org/1999/xlink" version="1.1" x="0" y="0" viewBox="7.263636112213135 3.4647164344787598 145.57272338867188 153.13526916503906" style="enable-background:new 0 0 160 160;" xml:space="preserve" height="215.365276613144" width="204.72951796716177" class="icon-icon-0" data-fill-palette-color="accent" id="icon-0"><g fill="#47a068" data-fill-palette-color="accent"><rect x="27.3" y="140.9" transform="matrix(0.27 -0.9629 0.9629 0.27 -111.6068 138.53)" width="16.5" height="4" fill="#47a068" data-fill-palette-color="accent"></rect><rect x="122.4" y="134.6" transform="matrix(0.9628 -0.2701 0.2701 0.9628 -33.968 38.9285)" width="4" height="16.5" fill="#47a068" data-fill-palette-color="accent"></rect><rect x="78" y="137.8" width="4" height="18.1" fill="#47a068" data-fill-palette-color="accent"></rect><path d="M12.1 104.1c-0.9-1.9-1.1-4-0.6-6l4.6-16.4c0.5-1.7 1.8-2.9 3.3-3l16.3-1.7c0.6-0.1 1.2 0.1 1.7 0.6 0.6 0.5 1 1.4 1 2.3 0 0.2 0 0.4 0 0.6 0 0.1 0 0.3-0.1 0.4l0.1-0.1 5-3.2L50 54.5c0.3-1.1 1-2 1.9-2.4 0.8-0.4 1.7-0.5 2.5-0.2 2 0.7 3.1 3.1 2.5 5.3l-4 14.3 5-3.2 1.7-6.2c0.3-1.1 1-2 1.9-2.4 0.8-0.4 1.7-0.5 2.5-0.2 1.4 0.5 2.3 1.8 2.6 3.3 1.2-0.7 2.4-1.3 3.7-1.8-0.8-2.4-2.5-4.4-4.9-5.2-1.4-0.5-2.9-0.5-4.3-0.1-0.2-3.3-2.2-6.4-5.3-7.4-1.9-0.7-3.9-0.5-5.7 0.4-1.9 1-3.3 2.7-3.9 4.8-0.8-0.9-1.9-1.6-3.1-2.1-1.9-0.7-3.9-0.5-5.7 0.4-1.9 1-3.3 2.8-3.9 4.9l-4.7 16.9-9.7 1c-3.2 0.3-5.8 2.7-6.7 5.9L7.7 97c-0.8 3-0.5 6.1 0.9 8.9l8.1 16.3c0.7 1.4 0.9 3.1 0.4 4.6L12 144.9l3.9 1.1 5.1-18.1c0.7-2.5 0.4-5.2-0.7-7.5L12.1 104.1zM37.3 57.7c0.3-1.1 1-2 1.9-2.4 0.8-0.4 1.7-0.5 2.5-0.2 2 0.7 3.1 3.1 2.5 5.3l-4 14.2c-0.1 0-0.1-0.1-0.2-0.2-1.3-1.2-3-1.7-4.8-1.5L33 73.2 37.3 57.7z" fill="#47a068" data-fill-palette-color="accent"></path><path d="M151.5 105.9c1.4-2.8 1.7-5.9 0.9-8.9l-4.6-16.4c-0.9-3.3-3.6-5.6-6.7-5.9l-9.7-1-4.7-16.9c-0.6-2.1-2-3.9-3.9-4.9-1.8-0.9-3.8-1.1-5.7-0.4-1.2 0.4-2.3 1.1-3.1 2.1-0.6-2.1-2-3.9-3.9-4.8-1.8-0.9-3.8-1.1-5.7-0.4-3.1 1.1-5.2 4.1-5.3 7.4-1.4-0.4-2.9-0.4-4.3 0.1-2.4 0.8-4.2 2.8-4.9 5.2 1.3 0.5 2.5 1.1 3.7 1.8 0.2-1.5 1.2-2.8 2.6-3.3 0.8-0.3 1.7-0.2 2.5 0.2 0.9 0.5 1.6 1.3 1.9 2.4l1.7 6.1 5 3.2L104.2 61c0 0 0 0 0 0l-1.1-3.8c-0.6-2.2 0.5-4.6 2.5-5.3 0.8-0.3 1.7-0.2 2.5 0.2 0.9 0.5 1.6 1.3 1.9 2.4l6.3 22.8 5 3.2 0.2 0.1c0-0.1 0-0.2 0-0.3 0-0.2 0-0.4 0-0.6 0-0.9 0.4-1.7 1-2.3 0.5-0.4 1.1-0.6 1.7-0.6l16.3 1.7c1.5 0.2 2.8 1.4 3.3 3l4.6 16.4c0.6 2 0.4 4.2-0.6 6l-8.1 16.3c-1.2 2.3-1.4 5-0.7 7.5l5.1 18.1 3.9-1.1-5.1-18.1c-0.4-1.5-0.3-3.2 0.4-4.6L151.5 105.9zM124.7 72.9c-1.7-0.2-3.4 0.4-4.8 1.5-0.1 0-0.1 0.1-0.2 0.2l-4-14.2c-0.6-2.2 0.5-4.6 2.5-5.3 0.8-0.3 1.7-0.2 2.5 0.2 0.9 0.5 1.6 1.3 1.9 2.4l4.3 15.4L124.7 72.9z" fill="#47a068" data-fill-palette-color="accent"></path><path d="M42.9 35.6c5.4 6.1 12.9 10.3 21 11.7 1.4 0.3 2.8 0.4 4.3 0.4 2.5 0 5-0.4 7.4-1.1l2.6-0.8v16.4c-3.6 0.3-7.2 1.5-10.4 3.5l-31.2 20 1.2 0.7c0.9 0.5 1.8 1 2.7 1.6L69.7 69c6.3-4 14.3-4 20.6 0l29.5 18.8c0.8-0.6 1.7-1.1 2.6-1.6l1.3-0.7L92.4 65.7c-3.2-2-6.8-3.2-10.5-3.5V33.7l2.1 0.7c2.4 0.8 4.9 1.1 7.3 1.1 1.4 0 2.9-0.1 4.3-0.4 8.1-1.4 15.5-5.6 21-11.7 3.7-4.2 8.6-7.2 14.1-8.5l3.5-0.9-2.8-2.8c-6-5.8-14.3-8.6-22.4-7.5L107.5 4c-8.9 1.2-16.8 5.8-22.3 12.7-2.2 2.8-3.9 5.9-5 9.2l-1.4 4.2c-0.5 1.5-0.8 3.1-0.8 4.8-1-2.1-2.2-4.1-3.7-6-5.5-7-13.5-11.5-22.3-12.7L50.7 16l-0.2 0c-8.1-1.1-16.4 1.7-22.4 7.5l-2.8 2.8 3.5 0.9C34.2 28.5 39.1 31.4 42.9 35.6zM88.3 19.2C93.2 13.1 100.2 9.1 108 8l1.5-0.2c5.9-0.8 11.9 0.8 16.7 4.4-4.8 1.8-9.1 4.8-12.6 8.6-4.8 5.4-11.5 9.1-18.7 10.4-3 0.5-6.1 0.4-9.1-0.5 4.7-6 14.3-16.2 14.3-16.2l-0.2 0.1c-6.1 2.8-11.5 6.9-15.8 11.9C85.2 23.9 86.5 21.4 88.3 19.2zM50 19.9l0.1 0 1.3 0.2c7.8 1.1 14.8 5.1 19.7 11.3 1.7 2.1 3 4.5 4 7.1-3.9-3.2-8.5-5.6-13.5-6.7 0 0 8.3 7.4 11.9 10.6l0.5 0.4c-3.1 1-6.4 1.2-9.6 0.6-7.2-1.3-13.8-5-18.7-10.4-3.5-3.9-7.8-6.8-12.6-8.6C38.1 20.8 44.1 19.1 50 19.9z" fill="#47a068" data-fill-palette-color="accent"></path><path d="M63.5 127.3l-6.6 5.6c-1.7 1.5-3 3.4-3.6 5.6l-4.7 16.9 3.9 1.1 4.7-16.9c0.4-1.4 1.2-2.7 2.4-3.7l6.6-5.6c0.6-0.5 1.2-1.1 1.7-1.7v-7.1C66.9 123.7 65.4 125.7 63.5 127.3z" fill="#47a068" data-fill-palette-color="accent"></path><path d="M103 132.9l-6.6-5.6c-1.9-1.6-3.3-3.5-4.3-5.7v7.1c0.5 0.6 1.1 1.2 1.7 1.7l6.6 5.6c1.1 1 2 2.2 2.4 3.7l4.7 16.9 3.9-1.1-4.7-16.9C106 136.3 104.8 134.4 103 132.9z" fill="#47a068" data-fill-palette-color="accent"></path><path d="M70.6 112.8l-20.4-5.7c-1.9-7.8-6.9-14.4-14-18.2l-11-6-1.9 3.5 11 6c6.4 3.5 10.9 9.6 12.2 16.7l0.2 1.2 22.8 6.4 1.4 0.4v7.4 22.3h4V114l-0.5-0.1L70.6 112.8z" fill="#47a068" data-fill-palette-color="accent"></path><path d="M123.9 88.9c-7.1 3.8-12.1 10.4-14 18.2l-20.4 5.7-3.9 1.1-0.5 0.1v32.7h4v-22.3-7.4l1.4-0.4 22.8-6.4 0.2-1.2c1.4-7.1 5.8-13.2 12.2-16.7l11-6-1.9-3.5L123.9 88.9z" fill="#47a068" data-fill-palette-color="accent"></path></g></svg></g></svg></g><g></g></svg></g><defs></defs></svg><rect width="215.72621010739192" height="247.2" fill="none" stroke="none" visibility="hidden"></rect></g></svg></g></svg>